<?xml version="1.0" standalone="no"?>
<!DOCTYPE svg PUBLIC "-//W3C//DTD SVG 20010904//EN"
 "http://www.w3.org/TR/2001/REC-SVG-20010904/DTD/svg10.dtd">
<svg version="1.0" xmlns="http://www.w3.org/2000/svg"
 width="397.000000pt" height="397.000000pt" viewBox="0 0 397.000000 397.000000"
 preserveAspectRatio="xMidYMid meet">

<g transform="translate(0.000000,397.000000) scale(0.100000,-0.100000)"
fill="#000000" stroke="none">
<path d="M1653 2980 c-36 -22 -58 -52 -69 -93 -9 -39 20 -108 56 -136 l30 -22
0 -213 0 -214 -26 -17 c-14 -9 -35 -37 -46 -62 -18 -40 -19 -51 -8 -87 15 -51
43 -82 87 -97 127 -42 234 111 152 215 -17 21 -20 34 -14 64 17 89 39 101 209
112 201 12 251 43 279 175 9 44 18 61 44 81 60 46 76 103 49 169 -49 117 -238
94 -262 -32 -9 -47 2 -78 42 -122 33 -37 34 -41 25 -81 -15 -68 -23 -71 -191
-87 -109 -9 -162 -19 -189 -33 -21 -10 -41 -16 -45 -13 -3 4 -6 59 -6 123 l0
118 34 26 c58 43 70 130 29 193 -35 53 -121 69 -180 33z m92 -115 c0 -35 -31
-47 -51 -20 -18 25 0 57 29 53 17 -2 22 -10 22 -33z m554 -49 c13 -16 -1 -56
-19 -56 -33 0 -55 42 -33 63 11 12 40 8 52 -7z m-565 -612 c31 -12 15 -74 -19
-74 -7 0 -35 32 -35 40 0 8 28 40 35 40 2 0 10 -3 19 -6z"/>
<path d="M1770 1795 c0 -15 6 -25 15 -25 17 0 35 -30 35 -59 0 -16 6 -21 25
-21 22 0 25 4 25 36 0 26 -8 43 -29 65 -37 37 -71 39 -71 4z"/>
<path d="M1402 1788 c2 -15 10 -23 23 -23 13 0 21 8 23 23 3 18 -1 22 -23 22
-22 0 -26 -4 -23 -22z"/>
<path d="M1470 1790 c0 -13 10 -24 25 -30 25 -9 25 -11 25 -129 0 -136 -3
-141 -80 -141 -37 0 -41 -2 -38 -22 6 -42 103 -35 144 9 23 25 24 33 24 155 0
124 -1 130 -25 153 -30 31 -75 34 -75 5z"/>
<path d="M1610 1790 c0 -15 7 -20 25 -20 18 0 25 5 25 20 0 15 -7 20 -25 20
-18 0 -25 -5 -25 -20z"/>
<path d="M1910 1790 c0 -15 7 -20 25 -20 18 0 25 5 25 20 0 15 -7 20 -25 20
-18 0 -25 -5 -25 -20z"/>
<path d="M2002 1788 c2 -13 10 -23 18 -23 8 0 16 10 18 23 3 17 -2 22 -18 22
-16 0 -21 -5 -18 -22z"/>
<path d="M2062 1788 c3 -20 10 -23 56 -26 50 -3 52 -2 52 22 0 25 -3 26 -56
26 -52 0 -55 -1 -52 -22z"/>
<path d="M2270 1798 c0 -7 -3 -23 -6 -35 -5 -17 -2 -23 10 -23 12 0 16 9 16
35 0 19 -4 35 -10 35 -5 0 -10 -6 -10 -12z"/>
<path d="M2313 1735 c4 -41 10 -93 13 -115 6 -36 5 -40 -15 -40 -19 0 -21 5
-21 66 0 57 -2 65 -17 62 -14 -3 -22 -28 -40 -127 -12 -69 -20 -128 -17 -133
3 -4 14 -8 24 -8 19 0 24 11 32 65 3 17 12 20 62 23 57 3 58 4 54 30 -3 15
-13 78 -23 140 -16 100 -20 112 -38 112 -19 0 -20 -4 -14 -75z"/>
<path d="M2450 1664 c0 -145 0 -145 23 -142 21 3 22 6 25 146 l3 142 -26 0
-25 0 0 -146z"/>
<path d="M1719 1784 c-12 -14 -11 -16 5 -13 11 2 21 10 24 17 5 17 -13 15 -29
-4z"/>
<path d="M1617 1744 c-4 -4 -7 -58 -7 -121 l0 -113 25 0 26 0 -3 117 c-2 97
-6 118 -18 121 -9 1 -19 0 -23 -4z"/>
<path d="M1700 1623 c1 -133 5 -149 47 -171 35 -19 63 -14 94 17 23 23 29 39
29 70 0 37 -2 41 -25 41 -22 0 -25 -4 -25 -34 0 -41 -24 -65 -48 -49 -14 8
-18 33 -22 129 -5 114 -6 119 -27 122 -23 3 -23 2 -23 -125z"/>
<path d="M1917 1744 c-4 -4 -7 -58 -7 -121 l0 -113 25 0 26 0 -3 117 c-2 97
-6 118 -18 121 -9 1 -19 0 -23 -4z"/>
<path d="M1400 1630 l0 -110 25 0 25 0 0 110 0 110 -25 0 -25 0 0 -110z"/>
<path d="M2062 1593 c3 -145 3 -148 26 -151 22 -3 22 -3 22 147 l0 151 -25 0
-26 0 3 -147z"/>
<path d="M1790 1636 c0 -24 4 -26 41 -26 36 0 40 2 37 23 -2 18 -10 23 -40 25
-35 3 -38 1 -38 -22z"/>
<path d="M2352 1478 c2 -26 8 -34 26 -36 21 -3 23 0 20 30 -2 26 -8 34 -26 36
-21 3 -23 0 -20 -30z"/>
<path d="M1612 1468 c2 -15 10 -23 23 -23 13 0 21 8 23 23 3 18 -1 22 -23 22
-22 0 -26 -4 -23 -22z"/>
<path d="M1910 1464 c0 -21 4 -25 23 -22 14 2 23 11 25 26 3 18 -1 22 -22 22
-21 0 -26 -5 -26 -26z"/>
<path d="M2450 1464 c0 -21 4 -25 23 -22 14 2 23 11 25 26 3 18 -1 22 -22 22
-21 0 -26 -5 -26 -26z"/>
<path d="M2520 1465 c0 -22 4 -25 35 -25 31 0 35 3 35 25 0 22 -4 25 -35 25
-31 0 -35 -3 -35 -25z"/>
<path d="M1590 1345 c0 -18 5 -25 20 -25 15 0 20 7 20 25 0 18 -5 25 -20 25
-15 0 -20 -7 -20 -25z"/>
<path d="M1660 1345 c0 -16 6 -25 15 -25 25 0 40 -45 27 -76 -10 -20 -18 -25
-40 -22 -23 3 -27 8 -30 41 -3 29 -7 37 -23 37 -18 0 -19 -8 -19 -110 0 -102
1 -110 19 -110 16 0 20 8 23 43 3 39 5 42 33 42 41 0 62 -42 43 -82 -12 -25
-20 -28 -66 -31 -48 -3 -52 -5 -52 -28 0 -23 3 -24 56 -24 48 0 59 4 85 29 23
24 29 38 29 74 0 28 -7 53 -18 67 -18 22 -18 24 1 61 16 33 17 44 7 74 -20 60
-90 91 -90 40z"/>
<path d="M1810 1355 c0 -33 23 -65 48 -65 18 0 23 4 18 16 -3 9 -9 27 -12 40
-4 17 -13 24 -30 24 -14 0 -24 -6 -24 -15z"/>
<path d="M1947 1363 c-15 -14 -6 -33 17 -33 15 0 26 7 29 20 4 16 0 20 -17 20
-13 0 -26 -3 -29 -7z"/>
<path d="M2044 1355 c-7 -18 3 -35 22 -35 8 0 14 10 14 25 0 27 -27 35 -36 10z"/>
<path d="M2104 1355 c-10 -25 6 -35 57 -35 46 0 49 2 49 25 0 23 -3 25 -50 25
-35 0 -52 -4 -56 -15z"/>
<path d="M2252 1348 c2 -15 11 -24 26 -26 18 -3 22 1 22 22 0 21 -5 26 -26 26
-21 0 -25 -4 -22 -22z"/>
<path d="M2324 1355 c-10 -24 9 -37 47 -33 26 2 34 8 34 23 0 16 -8 21 -38 23
-27 2 -39 -1 -43 -13z"/>
<path d="M1901 1228 c-14 -48 -21 -100 -21 -151 0 -76 1 -78 23 -75 21 3 22 9
28 98 3 52 13 115 22 139 22 56 22 61 -7 61 -20 0 -26 -9 -45 -72z"/>
<path d="M2104 1287 c-2 -7 -3 -74 -2 -148 3 -130 4 -134 26 -137 22 -3 22 -3
22 147 0 145 -1 151 -20 151 -11 0 -23 -6 -26 -13z"/>
<path d="M2257 1293 c-13 -13 -8 -211 6 -216 25 -8 37 6 37 43 0 38 1 39 38
42 29 2 38 8 40 25 3 19 -2 22 -35 25 -37 3 -38 4 -41 46 -2 32 -7 42 -21 42
-10 0 -21 -3 -24 -7z"/>
<path d="M1852 1238 c2 -13 8 -23 13 -23 6 0 11 10 13 23 2 15 -2 22 -13 22
-11 0 -15 -7 -13 -22z"/>
<path d="M2252 1028 c3 -22 7 -23 78 -23 68 0 75 2 75 20 0 18 -8 20 -78 23
-77 3 -78 2 -75 -20z"/>
</g>
</svg>
