<?xml version="1.0" standalone="no"?>
<!DOCTYPE svg PUBLIC "-//W3C//DTD SVG 20010904//EN"
 "http://www.w3.org/TR/2001/REC-SVG-20010904/DTD/svg10.dtd">
<svg version="1.0" xmlns="http://www.w3.org/2000/svg"
 width="255.000000pt" height="290.000000pt" viewBox="0 0 255.000000 290.000000"
 preserveAspectRatio="xMidYMid meet">

<g transform="translate(0.000000,290.000000) scale(0.100000,-0.100000)"
fill="#000000" stroke="none">
<path d="M889 2617 c-18 -12 -44 -38 -56 -56 -44 -65 -20 -175 46 -214 l31
-18 0 -249 0 -249 -29 -17 c-99 -59 -91 -223 14 -274 52 -25 95 -25 145 0 90
46 113 162 49 244 -17 22 -20 35 -15 66 17 105 38 116 237 129 179 11 223 25
273 83 31 36 46 73 61 155 4 21 18 39 44 57 97 67 92 195 -9 264 -95 64 -240
-15 -240 -132 0 -46 31 -108 65 -130 24 -16 26 -21 20 -59 -11 -61 -30 -94
-62 -102 -15 -4 -89 -11 -163 -15 -145 -9 -199 -21 -242 -52 l-28 -19 0 147 0
147 39 36 c43 40 66 102 55 148 -26 110 -149 168 -235 110z m111 -117 c15 -28
-4 -60 -35 -60 -31 0 -50 32 -35 60 6 12 21 20 35 20 14 0 29 -8 35 -20z m628
-69 c18 -11 11 -51 -10 -65 -33 -20 -69 21 -54 60 6 15 43 19 64 5z m-628
-731 c15 -28 -4 -60 -35 -60 -31 0 -50 32 -35 60 6 12 21 20 35 20 14 0 29 -8
35 -20z"/>
<path d="M1026 1273 c-12 -12 -6 -53 8 -53 24 0 46 -29 46 -61 0 -26 3 -29 30
-29 28 0 30 2 30 40 0 30 -7 47 -27 69 -27 29 -74 47 -87 34z"/>
<path d="M600 1240 c0 -25 4 -30 25 -30 21 0 25 5 25 30 0 25 -4 30 -25 30
-21 0 -25 -5 -25 -30z"/>
<path d="M680 1240 c0 -23 4 -30 20 -30 32 0 40 -32 40 -158 0 -141 -6 -152
-87 -152 -41 0 -52 -4 -56 -19 -9 -36 7 -44 70 -39 67 6 97 21 112 55 6 14 11
87 11 169 l0 146 -29 29 c-17 17 -40 29 -55 29 -22 0 -26 -4 -26 -30z"/>
<path d="M840 1245 c0 -20 5 -25 25 -25 20 0 25 5 25 25 0 20 -5 25 -25 25
-20 0 -25 -5 -25 -25z"/>
<path d="M1180 1245 c0 -21 5 -25 30 -25 25 0 30 4 30 25 0 21 -5 25 -30 25
-25 0 -30 -4 -30 -25z"/>
<path d="M1290 1240 c0 -23 4 -30 20 -30 16 0 20 7 20 30 0 23 -4 30 -20 30
-16 0 -20 -7 -20 -30z"/>
<path d="M1360 1240 l0 -31 63 3 c59 3 62 4 62 28 0 24 -3 25 -62 28 l-63 3 0
-31z"/>
<path d="M1596 1239 c-9 -47 -7 -59 9 -59 11 0 15 12 15 45 0 52 -14 60 -24
14z"/>
<path d="M1654 1169 c4 -57 9 -119 12 -136 6 -30 4 -33 -20 -33 -26 0 -26 1
-26 75 0 68 -2 75 -20 75 -11 0 -20 -3 -20 -8 0 -4 -11 -70 -24 -147 -14 -76
-23 -142 -20 -147 3 -4 14 -8 25 -8 21 0 39 35 39 76 0 23 3 24 64 24 36 0 67
4 70 8 3 4 -7 77 -22 162 -23 132 -30 155 -46 158 -18 4 -19 -1 -12 -99z"/>
<path d="M1800 1100 l0 -170 30 0 30 0 0 170 0 170 -30 0 -30 0 0 -170z"/>
<path d="M970 1245 c-7 -9 -10 -18 -7 -21 10 -11 37 5 37 21 0 19 -14 19 -30
0z"/>
<path d="M600 1060 l0 -130 25 0 25 0 0 130 0 130 -25 0 -25 0 0 -130z"/>
<path d="M840 1055 l0 -135 25 0 25 0 0 135 0 135 -25 0 -25 0 0 -135z"/>
<path d="M940 1055 c0 -147 8 -178 51 -201 78 -40 149 11 149 106 0 38 -2 40
-29 40 -28 0 -30 -3 -33 -41 -3 -49 -27 -71 -55 -53 -16 10 -18 30 -21 148
l-3 136 -29 0 -30 0 0 -135z"/>
<path d="M1180 1071 c0 -66 3 -126 6 -135 3 -9 17 -16 30 -16 l24 0 0 135 0
135 -30 0 -30 0 0 -119z"/>
<path d="M1365 1178 c-3 -8 -4 -86 -3 -173 l3 -160 25 0 25 0 0 170 c0 169 0
170 -23 173 -12 2 -24 -3 -27 -10z"/>
<path d="M1047 1084 c-4 -4 -7 -18 -7 -31 0 -21 4 -23 51 -23 49 0 50 1 47 28
-3 24 -8 27 -43 30 -23 2 -44 0 -48 -4z"/>
<path d="M1692 883 c3 -35 6 -38 33 -38 27 0 30 3 26 30 -4 40 -8 45 -37 45
-23 0 -25 -3 -22 -37z"/>
<path d="M840 870 c0 -25 4 -30 25 -30 21 0 25 5 25 30 0 25 -4 30 -25 30 -21
0 -25 -5 -25 -30z"/>
<path d="M1187 893 c-4 -3 -7 -17 -7 -30 0 -19 5 -23 30 -23 27 0 30 3 30 30
0 25 -4 30 -23 30 -13 0 -27 -3 -30 -7z"/>
<path d="M1802 873 c2 -22 9 -29 31 -31 24 -3 27 0 27 27 0 28 -3 31 -31 31
-27 0 -30 -3 -27 -27z"/>
<path d="M1882 873 c3 -25 7 -28 43 -28 36 0 40 3 43 28 3 26 2 27 -43 27 -45
0 -46 -1 -43 -27z"/>
<path d="M810 730 c0 -28 3 -31 28 -28 21 2 27 8 27 28 0 20 -6 26 -27 28 -25
3 -28 0 -28 -28z"/>
<path d="M897 753 c-4 -3 -7 -17 -7 -30 0 -15 6 -23 18 -23 45 0 60 -76 20
-104 -41 -29 -57 -21 -60 32 -3 43 -5 47 -28 47 l-25 0 -3 -127 -3 -128 31 0
c30 0 30 0 30 55 0 52 1 55 25 55 34 0 65 -33 65 -70 0 -48 -30 -70 -96 -70
-54 0 -55 0 -52 -27 3 -25 7 -28 48 -31 61 -5 117 13 137 45 25 38 22 116 -6
154 -20 27 -21 32 -8 47 41 45 27 130 -27 163 -33 20 -48 23 -59 12z"/>
<path d="M1070 749 c0 -7 5 -29 12 -50 10 -34 15 -39 41 -39 26 0 29 3 23 25
-15 60 -25 75 -51 75 -14 0 -25 -5 -25 -11z"/>
<path d="M1227 753 c-4 -3 -7 -15 -7 -25 0 -30 54 -21 58 10 3 17 -1 22 -21
22 -13 0 -27 -3 -30 -7z"/>
<path d="M1340 730 c0 -23 4 -30 20 -30 16 0 20 7 20 30 0 23 -4 30 -20 30
-16 0 -20 -7 -20 -30z"/>
<path d="M1410 730 l0 -30 60 0 60 0 0 30 0 30 -60 0 -60 0 0 -30z"/>
<path d="M1580 731 c0 -26 4 -31 25 -31 14 0 26 5 26 10 5 40 3 45 -23 48 -25
3 -28 0 -28 -27z"/>
<path d="M1662 733 c3 -26 6 -28 48 -28 41 0 45 2 45 25 0 23 -4 25 -48 28
-48 3 -48 3 -45 -25z"/>
<path d="M1175 597 c-19 -63 -25 -105 -25 -176 0 -90 1 -92 23 -89 21 3 22 9
28 103 4 75 12 117 32 169 15 37 27 70 27 72 0 2 -13 4 -30 4 -28 0 -30 -3
-55 -83z"/>
<path d="M1412 508 c3 -165 4 -173 23 -173 19 0 20 8 23 173 l2 172 -25 0 -25
0 2 -172z"/>
<path d="M1580 551 l0 -131 25 0 c20 0 25 5 26 25 1 14 3 30 4 35 1 6 3 17 4
25 1 11 13 15 41 15 38 0 40 2 40 30 0 28 -2 30 -40 30 -42 0 -41 -1 -44 65
-1 25 -6 31 -28 33 l-28 3 0 -130z"/>
<path d="M1110 617 c0 -7 6 -21 13 -32 13 -17 15 -16 25 13 10 30 10 32 -14
32 -13 0 -24 -6 -24 -13z"/>
<path d="M1582 363 l3 -28 85 0 c84 0 85 0 85 25 0 25 -2 25 -88 28 l-88 3 3
-28z"/>
</g>
</svg>
